<svg width="61" height="49" viewBox="0 0 61 49" fill="none" xmlns="http://www.w3.org/2000/svg">
<path d="M16.2251 14.5834C10.5943 16.0917 7.07504 21.5214 8.08055 25.3423C9.08605 29.1632 12.907 24.8395 18.5378 23.3313C24.1686 21.823 29.5983 23.6329 28.5928 19.9126C27.5873 16.1922 21.9565 13.0751 16.2251 14.5834Z" fill="#FFE895"/>
<path d="M11.9015 12.7735C13.6108 12.1702 13.8119 8.44983 12.907 5.93607C12.002 3.42231 9.89046 1.91406 8.1811 2.51736C6.47175 3.12066 5.86845 5.63442 6.7734 8.14818C7.67835 10.6619 10.1921 13.4773 11.9015 12.7735Z" fill="#FFE895"/>
<path d="M18.8393 10.863C20.6492 10.6619 21.8558 7.14268 21.5542 4.52837C21.3531 1.91407 19.6437 -0.0969386 17.8338 0.0036117C16.0239 0.204712 14.7167 2.41682 15.0184 5.13168C15.2195 7.74598 17.0294 11.0641 18.8393 10.863Z" fill="#FFE895"/>
<path d="M26.8834 3.12069C25.0735 3.12069 23.5652 5.23224 23.5652 7.9471C23.5652 10.662 25.0735 13.9801 26.8834 13.9801C28.6933 13.9801 30.2016 10.5614 30.2016 7.9471C30.2016 5.23224 28.6933 3.12069 26.8834 3.12069Z" fill="#FFE895"/>
<path d="M1.34358 9.95809C-0.265226 10.863 -0.466327 13.4774 0.941377 15.79C2.24853 18.1027 5.26504 20.3148 6.87384 19.4098C8.48265 18.5049 7.9799 14.7845 6.67274 12.4719C5.36559 10.1592 2.95238 9.05314 1.34358 9.95809Z" fill="#FFE895"/>
<path d="M44.178 36.805C38.5472 35.2968 32.7153 38.3133 31.8103 42.0336C30.9054 45.754 36.2346 43.9441 41.8654 45.4523C47.4962 46.9606 51.3171 51.2843 52.3226 47.4633C53.3281 43.6424 49.8088 38.3133 44.178 36.805Z" fill="#FFE895"/>
<path d="M48.5017 35.0957C50.2111 35.699 52.7248 32.9841 53.6298 30.4704C54.5347 27.9566 53.9314 25.4428 52.2221 24.8395C50.5127 24.2362 48.4012 25.7445 47.4962 28.2582C46.5913 30.772 46.7924 34.4924 48.5017 35.0957Z" fill="#FFE895"/>
<path d="M41.5637 33.1852C43.3736 33.3863 45.1835 30.0681 45.3846 27.4538C45.5857 24.8395 44.3791 22.5269 42.5692 22.3258C40.7593 22.1247 39.05 24.2362 38.8489 26.8505C38.5472 29.4648 39.7538 32.9841 41.5637 33.1852Z" fill="#FFE895"/>
<path d="M33.5196 36.3023C35.3295 36.3023 36.8377 32.8835 36.8377 30.2692C36.8377 27.6549 35.3295 25.4428 33.5196 25.4428C31.7097 25.4428 30.2014 27.5544 30.2014 30.2692C30.2014 32.8835 31.7097 36.3023 33.5196 36.3023Z" fill="#FFE895"/>
<path d="M59.0595 32.1797C57.4507 31.2747 55.1381 32.3808 53.8309 34.6934C52.5238 37.0061 52.021 40.7265 53.6298 41.6314C55.2386 42.5364 58.1546 40.3243 59.5623 38.0116C60.97 35.6989 60.5678 33.0846 59.0595 32.1797Z" fill="#FFE895"/>
</svg>
